<?xml version="1.0" encoding="utf-8"?>
<!-- Generator: Adobe Illustrator 16.0.0, SVG Export Plug-In . SVG Version: 6.00 Build 0)  -->
<!DOCTYPE svg PUBLIC "-//W3C//DTD SVG 1.1//EN" "http://www.w3.org/Graphics/SVG/1.1/DTD/svg11.dtd">
<svg version="1.1" id="Calque_1" xmlns="http://www.w3.org/2000/svg" xmlns:xlink="http://www.w3.org/1999/xlink" x="0px" y="0px"
	 width="422.639px" height="799.99px" viewBox="0 0 422.639 799.99" enable-background="new 0 0 422.639 799.99"
	 xml:space="preserve">
<g>
	<g>
		<path fill-rule="evenodd" clip-rule="evenodd" fill="#1B185C" d="M154.25,194.072c-0.066-0.266-0.139-0.559-0.214-0.872
			c-0.063,0.742,0.118,1.463,0.554,2.162c-0.145-0.217-0.242-0.757-0.336-1.273C154.253,194.083,154.252,194.078,154.25,194.072z
			 M128.789,179.74c0,0.366,0.001,0.732,0.001,1.099C128.79,180.43,128.79,180.073,128.789,179.74z M154.819,195.672
			c-0.075-0.104-0.157-0.2-0.229-0.31C154.683,195.502,154.758,195.602,154.819,195.672z M63.708,230.914
			c-4.399,2.201-5.826,7.197-5.927,11.766c-0.244,11.032,5.473,18.813,12.767,25.85c3.035,2.926,1.339,8.531,5.333,10.996
			c2.575,1.588,5.109,5.966,7.016,8.326c5.049,6.253,16.385,21.093,24.759,9.516c5.053-6.984,9.725-14.915,19.927-12.746
			c8.891,1.891,17.458,4.566,26.454,5.889c3.428,0.504,8.253,1.193,11.087,3.344c3.012,2.285,8.541,0.125,12.211,2.737
			c1.07,0.761,18.339,9.546,18.339,8.854c4.946,0,9.845,1.897,14.772,1.314c2.402-0.284,5.861-1.926,8.489-2.664
			c8.035-2.261,16.332-5.099,23.718-8.685c2.72-1.322,6.779-1.589,9.771-1.589c0-1.018,8.6-3.985,9.588-4.452
			c2.847-1.341,6.107-7.173,8.875-7.173c1.627-6.479,7.827-9.578,10.844-15.18c4.298-7.984,10.103-20.421,6.023-28.695
			c-1.451-2.941-5.637-7.113-8.89-8.089c-4.61-1.382-13.817-2.365-17.562-5.216c-3.391-2.579-6.155-6.189-10.27-7.996
			c-2.828-1.243-8.032,1.768-10.993,2.528c-3.963,1.017-7.125,1.582-11.086,2.486c-5.959,1.358-8.751,6.269-13.519,9.384
			c-3.969,2.594-5.17,4.948-10.115,5.368c-5.255,0.443-7.403,1.904-11.66,4.397c-8.123,4.759-17.493,6.776-27.113,7.233
			c-8.739,0.417-15.324-1.021-23.712-0.52c-6.919,0.414-28.698,4.214-25.359-8.06c2.649-9.722,6.76-17.241,7.156-27.398
			c0.158-4.033,0.063-8.075,0.243-12.107c0.322-7.226,3.061-12.158,3.894-19.315c-0.206,1.309,0.003-8.419,0.022-1.277
			c-0.009-7.046-0.085-14.112,0.665-21.128c0.679-6.338,3.459-10.814,5.019-16.718c1.911-7.236,1.751-14.947,1.659-22.568
			c-0.146-12.139-0.543-24.319,1.713-36.277c1.893-10.024,5.257-22.404,2.383-32.229c-1.973-6.747-4.745-12.767-9.073-18.418
			c-2.224-2.904-2.983-6.654-5.863-9.571c-3.313-3.356-10.218-4.377-12.352-8.663c-4.801,0-8.905-2.585-12.354-5.557
			c-4.619-3.975-9.702,0.696-14.825-1.528c-5.932-2.576-8.532-0.87-14.562-0.759c-4.34,0.081-7.846-8.544-10.687-0.575
			c-1.745,4.896,2.513,6.478,2.513,11.153c2.214,0,1.489,8.396,1.454,9.613c-0.432,14.794,1.564,28.246-1.249,42.977
			c-2.488,13.04-3.946,27.466-2.14,40.641c1.155,8.418,0.256,16.433,3.364,24.627c9.702,25.578,1.99,52.21,1.99,78.55
			C66.443,219.323,63.708,224.9,63.708,230.914z M154.253,194.083c-0.038-0.207-0.075-0.405-0.114-0.582
			c0.015,0.122,0.051,0.309,0.111,0.571C154.251,194.076,154.252,194.08,154.253,194.083z M154.254,194.089
			c0.074,0.313,0.182,0.728,0.336,1.273c-0.084-0.3-0.201-0.737-0.337-1.279C154.254,194.085,154.254,194.087,154.254,194.089z
			 M373.932,448.461c-0.585-9.36,0.595-18.002-1.468-27.282c-2.181-9.82-6.48-18.573-5.477-29.086
			c0.652-6.828,2.207-13.673,2.289-20.546c0.027-2.248-3.352-4.297-3.352-6.617c-1.261,0-4.775-9.689-5.095-10.771
			c-1.358-4.603-1.857-12.812,0.783-17.287c6.268-10.62-0.366-29.885-2.986-42.007c-0.961-4.446-2.175-8.299-2.789-12.971
			c-0.765-5.826,0.521-10.206,0.407-15.518c-0.286-13.317,6.348-26.353,3.829-39.813c-1.129-6.038-3.092-10.93-5.264-16.681
			c-2.646-7.009-10.978-11.198-15.551-16.914c-1.106-1.383-6.774-5.13-8.205-5.13c0-2.314-3.628-5.453-5.198-6.819
			c-5.683-4.938-10.377-10.385-18.084-11.093c-13.836-1.272-26.627-8.139-40.911-5.081c-9.357,2.002-19.372-1.31-29.235-0.479
			c-9.203,0.773-18.178,2.356-27.273,2.216c-7.424-0.114-14.236-2.634-21.293-2.937c-2.582-0.111-5.46,0.93-7.918,1.597
			c-4.619,1.256-7.391-1.902-11.92-2.154c-6.581-0.365-16,0.44-16,9.711c-3.071,2.045-0.531,14.805,0.814,20.402
			c0.002-0.023-0.001-0.046,0.001-0.069c0.037,0.097,0.069,0.228,0.102,0.37c-0.135-1.116,1.455,3.061,0.681,2.171
			c3.214,4.453,8.799,5.111,12.495,8.841c4.161,4.198,8.152,7.796,14.316,8.373c7.813,0.733,18.246,0.455,25.461-2.652
			c5.408-2.329,14.927-5.1,19.272-9.402c3.877-3.838,15.13-10.256,20.987-10.256c0-3.093,16.179-1.476,18.328-1.39
			c6.53,0.26,16.349,9.092,20.427,13.595c6.486,7.161,12.474,13.798,16.854,22.342c2.117,4.132,3.896,7.359,6.112,11.406
			c1.694,3.094,3.107,6.751,3.142,10.266c0.061,6.368-0.978,12.719,0.126,19.051c0.645,3.688,2.305,7.567,2.305,11.566
			c1.903,0,2.576,13.155,2.852,13.829c7.099,17.359,8.331,36.674,7.604,55.408c-0.294,7.578-0.528,15.16-0.683,22.744
			c-0.091,4.36,1.665,15.418-0.869,18.702c-4.657,6.034-8.814,12.268-13.184,18.533c-5.478,7.856-14.614,13.537-21.703,19.842
			c-4.483,0-7.501,3.268-11.965,3.587c-7.143,0.512-14.017,1.814-21.232,2.098c-18.211,0.72-30.926-3.107-48.999-3.503
			c-14.554-0.318-33.675,4.103-48.192,2.94c-8.987-0.718-14.824-6.066-23.758-4.751c-5.659,0.835-18.258,1.774-23.984,2.036
			c-4.841,0.221-14.43-0.78-19.006-2.715c-4.741-2.005-14.461-4.478-25.454,5.77c-3.192,2.975-5.412,8.856-6.522,12.756
			c-2.454,8.626-1.775,21.636,2.45,30.461c5.275,11.02,15.352,27.608,40.702,55.422c10.376,11.385,23.405,18.946,36.74,25.381
			c6.83,3.295,15.795,12.055,23.411,12.055c0,2.32,19.688,6.455,21.768,7.566c13.728,7.333,31.191,12.743,46.969,9.154
			c4.082-0.928,6.052-2.217,10.489-2.796c5.248-0.688,10.485-1.455,15.09-3.71c7.295-3.572,14.133-8.06,21.103-12.224
			c7.665-4.579,19.96-1.002,27.138-5.219c6.456-3.792,15.714-2.314,22.392-5.724c9.091-4.638,19.427-15.782,25.347-23.986
			c2.307-3.196,4.573-5.971,6.99-8.976c4.733-5.884,4.007-9.729,3.743-16.871C363.171,486.071,375.114,467.33,373.932,448.461z
			 M315.663,475.662c-0.74,9.069-7.281,17.049-9.163,24.278c0.018,0.008,0.032,0.028,0.044,0.06c0.101-0.204,0.09,0.004-0.021,0.584
			c0.052-0.313,0.052-0.497,0.021-0.584c-0.043,0.086-0.104,0.238-0.185,0.464c0.04-0.174,0.096-0.35,0.141-0.523
			c-0.191-0.096-0.705,1.056-0.06,1.056c-1.803,0-4.905,6.607-5.659,7.928c-1.786,3.129-4.785,4.406-7.148,7.242
			c-1.886,2.262-5.283,3.675-7.771,5.353c-3.626,2.446-7.204,7.513-12.242,7.513c0,1.532-15.415,5.355-17.016,6.302
			c-6.331,3.743-11.01,4.97-17.631,7.004c-3.255,0.998-3.68,3.79-7.458,4.606c-4.037,0.873-8.075,1.749-12.083,2.746
			c-2.799,0.696-5.463,1.586-8.119,2.666c-6.127,2.49-8.413-4.356-12.407-7.289c-6.608-4.854-14.313-5.459-19.385-12.617
			c-1.803-2.545-4.075-4.695-6.216-6.997c-4.773-5.139-4.419-7.061-4.709-14.61c-0.141-3.639-0.111-10.004-2.838-13.007
			c-4.022-4.432-4.071-8.449-1.322-13.863c2.576-5.073,6.855-7.633,11.506-10.087c3.173-1.673,7.813-7.109,11.327-7.14
			c4.556-0.04,6.804,5.362,8.517,8.72c1.143,2.241-0.82,4.834,0.57,7.072c2.031,1.357,3.598,3.296,5.409,4.908
			c8.088,7.204,19.749,10.7,29.905,13.805c6.269,1.917,13.61,7.399,20.199,7.09c5.418-0.254,8.952-1.988,9.716-7.641
			c0.527-3.905,3.829-7.494,3.829-11.324c3.668,0,1.909-16.466,1.7-18.724c-0.169-1.822-0.03-7.452-1.288-8.489
			c-5.334-4.406,5.512-5.467,7.441-5.639c13.557-1.209,29.104-5.124,42.266-3.52C321.551,453.737,316.001,471.521,315.663,475.662z
			 M72.598,362.879c2.39,0,1.801-2.611,2.05-4.104c2.614-1.734,4.548-4.224,6.924-6.23c3.729-3.147,11.195-7.852,15.639-3.34
			c2.523,2.287,1.713,7.008,3.478,9.776c0.981,1.539,1.46,3.914,2.144,5.82c1.169,3.255,1.88,3.122,3.599,5.987
			c2.271,3.787,4.927,7.912,6.957,11.732c2.254,4.243,7.574,5.16,10.691,8.447c4.152,4.379,7.406,5.985,13.473,4.733
			c1.086-4.876,5.717-9.688,9.186-12.741c1.421-1.25-0.32-4.269,1.87-4.424c1.745-0.122,3.108,1.437,4.672,1.437
			c0.955,5.755,5.121,12.309,11.623,12.309c0,1.706,18.119,9.02,20.15,10.535c6.866,5.122,12.25,9.48,21.082,11.381
			c13.999,3.01,9.036-22.895,10.528-30.622c1.532-7.938-2.458-17.337-1.163-24.457c1.011-5.557,4.644-6.597,7.017-10.749
			c3.218-5.63,9.342,2.416,11.445,4.936c3.4,1.708,4.975,14.36,8.205,14.36c0,7.274,6.388,16.025,9.813,22.221
			c2.991,5.405,9.558,8.876,15.35,10.538c8.463,2.427,11.476,0.55,11.131-8.082c-0.155-3.888-2.111-5.524-2.829-9.146
			c-1.154-5.812-2.257-11.666-2.596-17.593c-0.37-6.473-2.4-13.211-2.749-20.056c-0.374-7.301-2.511-12.591-7.859-17.528
			c-8.002-7.385-16.762-7.038-27.599-5.021c-4.882,0.907-9.521,2.273-14.543,2.273c0,1.355-6.236,3.457-7.307,3.848
			c-7.201,2.645-13.198,11.886-18.591,16.676c-3.708,3.295-10.847,16.217-16.483,14.849c-2.999-0.729-7.262-5.812-9.262-8.02
			c-3.918-4.327-10.378-5.863-16.065-6.337c-4.838-0.404-16.536,7.906-18.2,1.354c-1.746-6.872-0.936-12.967,0.068-19.412
			c2.19-14.045-41.337-7.33-41.337,1.147c-0.997,0.249-4.788,2.138-4.788,3.418c-2.094,0-4.357-0.016-6.261,1.009
			c-3.942,2.119-7.078,5.828-12.199,5.828c0,3.729-16.6,3.457-18.857,4.041c-5.48,1.419-7.951,11.757-9.014,16.632
			c-1.819,8.348,9.565,4.69,13.586,4.192C57.706,364.234,72.598,363.504,72.598,362.879z M93.11,329.377
			C93.11,328.921,91.649,329.743,93.11,329.377L93.11,329.377z"/>
	</g>
</g>
<g>
	<g>
		<path fill-rule="evenodd" clip-rule="evenodd" fill="#1B185C" d="M73.097,556.346C73.292,560.305,70.997,555.341,73.097,556.346
			c-5.362-2.566-7.396,0.298-11.577,0.471c0.125,2.914-15.863,0.58-18.492,1.524c0.107,2.517-12.287,1.188-13.395,5.715
			c-1.25,5.114,4.961,14.354,8.87,16.115c0.121,2.876,11.861,6.624,11.922,8.019c5.761,1.666,13.429,4.713,17.689-2.264
			c2.907-0.128,5.375-12.586,5.671-12.599c-0.109-2.739,2.096-2.917,1.46-6.629C74.656,563.252,73.271,559.857,73.097,556.346z
			 M392.884,669.369c-0.101-8.256-1.893-9.212-8.092-14.361c-1.703-2.585-3.651-9.036-4.27-9.873
			c-2.726-7.232-9.619-15.167-17.021-19.408c-3.577-2.209-14.72-3.51-19.451-3.079c-4.218,0.176-10.537-1.27-4.899-6.372
			c1.43-1.291,3.627-3.287,5.669-4.755c2.702-1.755,8.149-5.356,10.889-6.354c2.915-1.389,10.259-3.121,10.414-8.697
			c0.224-8.139-14.229-2.742-18.603-2.564c-6.148,1.783-9.89,2.77-13.332,5.348c-2.376,1.696-5.317,2.771-7.131,4.762
			c-1.977,1.911-7.972,4.74-11.649,7.286c-10.275,6.204-18.705,16.348-26.499,25.118c-4.524,5.092-7.156,9.357-11.653,15.637
			c-1.695,2.345-3.097,4.738-4.611,5.86c-5.406,4.002-4.977-1.703-5.387-3.544c-0.187-4.537-1.332-7.67-1.721-11.361
			c-0.425-4.028,1.1-9.321-2.339-12.436c-1.361-1.434-12.076-9.233-29.643-6.529c0.264,7.269,1.793,14.663,2.707,21.875
			c1.199,9.465,0.402,16.756,0.749,25.141c-0.909,2.506,9.806,21.572,10.203,22.779c3.03,4.684,9.22,12.767,16.741,12.463
			c20.398,0.141,26.366-17.594,27.356-22.373c2.303-5.928,10.149-21.957,12.472-24.857c2.658-5.853,6.517-9.997,9.499-13.528
			c2.521-2.171,4.895-6.155,9.768-6.968c3.418-0.568,5.545-2.269,9.549-2.838c4.977-0.708,8.603-2.039,15.039-0.866
			c4.028,1.486,7.879,8.413,9.175,13.308c1.387,5.238,0.171,12.841-0.265,15.707c-4.096-0.656-5.189-2.021-7.258-4.449
			c-2.328-2.502-5.169-6.526-8.378-6.786c-5.753-0.467-11.73-0.513-14.967,0.111c-5.673,1.583-9.661,3.96-11.329,6.645
			c-1.302,2.575-5.119,14.454-2.916,23.312c0.191,4.697,1.954,7.263,4.328,11.42c2.801,3.733,5.168,8.668,11.117,13.068
			c4.597,3.371,11.352,7.586,19.43,8.653c5.593,0.739,13.089,1.243,17.536,1.064c2.307,3.163,5.61,7.356,14.027,11.749
			c3.595,2.074,7.074,1.847,9.536,1.896c5.463,0.106,4.071-6.727,4.682-11.084c1.54-10.999-0.146-18.545,0.761-30.799
			C393.863,678.612,392.962,675.808,392.884,669.369z M357.205,678.054c-0.402,1.451-1.241,8.796-1.261,9.051
			c-0.176,2.255-1.774,8.435-2.742,8.614c-1.096,0.324-3.445,0.797-5.371,0.993c-3.05,0.431-7.435-0.311-9.501,0.027
			c-3.077,0.503-5.245-2.346-6.927-4.772c-2.815-4.615-2.623-16.24,1.327-19.248c5.681-4.327,6.458-5.444,12.397-4.501
			c0.004,0.108,6.454,1.825,8.646,3.516C355.569,672.844,358.412,673.701,357.205,678.054z"/>
	</g>
</g>
<path fill="#1B185C" d="M233.556,624.045c-2.825-0.243-6.699,2.301-9.883,4.722c-3.745,3.746-4.157,5.067-5.896,7.592
	c-0.235,0.206-4.332,4.426-4.403,4.429c0.174-0.007-10.081,8.552-10.685,9.541c-2.339,3.836-6.093,4.238-9.57,5.971
	c-0.969,0.483-5.267,4.927-6.103,5.662c-1.342,1.182-3.994,2.291-5.269,3.304c-2.182,1.736-12.813,11.716-13.153,3.313
	c-0.08-1.979-3.518-6.302-3.626-6.492c-1.125-1.983-3.786-8.41-4.774-9.979c-1.226-1.941-2.804-5.436-4.89-6.875
	c-4.42-3.049-6.488-8.598-11.149-11.804c-6.79-4.673-12.315-14.195-19.962-15.787c-2.414-0.503-5.889-2.14-8.823-3.224
	c-2.89-1.066-6.103-3.378-8.678-4.084c-8.743-2.395-21.786-2.654-27.386-2.654c-3.921,0.342-8.25,0.442-10.15,0.313
	c-4.154-0.279-6.175,0.226-10.316,1.317c-4.642,1.223-11.347-0.701-16.305-0.182c-1.214,0.127-8.708,0.308-9.766,1.723
	c-0.82,1.098-0.026,6.331,1.083,7.097c2.529,1.741,2.447,2.976,4.172,4.188c0.455,0.319,3.595,1.707,3.728,1.723
	c9.494,1.193,16.596,3.643,26.97,3.223c6.849-0.278,12.399,2.584,18.845,2.324c7.021-0.283,11.721,1.438,16.434,3.204
	c0.808-0.033,3.566,1.415,4.907,2.119c1.087,0.57,2.616,0.749,3.63,1.394c1.654,1.052,5.367,3.029,7.156,4.055
	c2.388,1.366,6.153,4.849,7.381,6.448c2.425,3.156,4.165,5.887,6.36,8.785c3.633,4.795,6.707,10.305,11.034,18.28
	c1.169,1.974,2.156,5.908,4.589,11.982c0.547,1.362,1.343,8.444,1.045,9.49c-0.406,1.567-0.873,3.14-1.358,4.688
	c-0.407,1.304-1.175,3.87-2.417,4.884c-3.288,2.682-3.055,5.328-6.318,8.16c-1.792,1.557-3.93,5.18-3.865,6.834
	c0.129,3.279-1.465,6.678-1.384,10.817c0.128,6.532,2.35,12.972,2.599,19.257c0.112,2.783,2.063,4.902,2.499,9.129
	c0.729,7.046,4.287,13.265,5.568,20.215c0.615,3.339,4.178,7.786,6.256,10.361c0.476,0.59,3.394,2.546,5.242,4.065
	c1.205,1.448,3.568,2.513,4.091,2.87c2.202,1.506,22.679-0.586,24.341-0.933c4.91-1.022,7.133-1.152,11.38-3.287
	c3.151-1.612,4.707-3.729,5.103-5.116c0.498-1.742,0.031-4.354,0.043-6.145c0.041-5.744,0.694-11.841,0.124-17.559
	c-0.602-6.042-3.788-12.668-4.056-19.223c-0.038-0.947-5.131-17.092-5.246-17.5c-2.587-9.209-5.841-15.095-6.194-16.774
	c-3.688-5.67-3.013-8.44-1.729-11.114c1.229-2.559,4.287-5.178,6.108-7.371c1.186-1.43,2.393-2.928,3.212-3.914
	c1-1.204,4.814-7.867,10.724-12.741c2.333-1.927,10.458-7.643,12.444-8.712c6.618-3.563,28.678-21.042,23.947-6.664
	C239.736,647.729,235.034,635.708,233.556,624.045z M173.479,768.592c-4.249,6.276-14.347-7.608-15.058-12.003
	c-0.699-4.326-0.901-8.993-0.153-13.327c-0.073,0.231,1.022-5.754,1.135-6.021c1.479-3.485,1.566-6.429,6.069-8.526
	c2.161,2.248,4.729,10.092,5.726,14.891C173.908,753.095,175.342,765.842,173.479,768.592
	C173.054,769.221,173.715,768.244,173.479,768.592z"/>
</svg>
